<svg width="47" height="42" viewBox="0 0 47 42" fill="none" xmlns="http://www.w3.org/2000/svg">
<path d="M0.5 33.1479V36.6336C0.5 39.5151 8.22656 41.8579 17.75 41.8579C27.2734 41.8579 35 39.5151 35 36.6336V33.1479C31.2895 35.5234 24.5063 36.6336 17.75 36.6336C10.9938 36.6336 4.21055 35.5234 0.5 33.1479ZM29.25 10.5119C38.7734 10.5119 46.5 8.16911 46.5 5.28756C46.5 2.40602 38.7734 0.0632324 29.25 0.0632324C19.7266 0.0632324 12 2.40602 12 5.28756C12 8.16911 19.7266 10.5119 29.25 10.5119ZM0.5 24.5849V28.7971C0.5 31.6786 8.22656 34.0214 17.75 34.0214C27.2734 34.0214 35 31.6786 35 28.7971V24.5849C31.2895 27.3604 24.4973 28.7971 17.75 28.7971C11.0027 28.7971 4.21055 27.3604 0.5 24.5849ZM37.875 25.4829C43.023 24.5768 46.5 22.8952 46.5 20.9606V17.475C44.4156 18.8137 41.352 19.7279 37.875 20.2912V25.4829ZM17.75 13.1241C8.22656 13.1241 0.5 16.0464 0.5 19.6545C0.5 23.2625 8.22656 26.1849 17.75 26.1849C27.2734 26.1849 35 23.2625 35 19.6545C35 16.0464 27.2734 13.1241 17.75 13.1241ZM37.4527 17.7198C42.8434 16.8382 46.5 15.1077 46.5 13.1241V9.63845C43.3105 11.6874 37.8301 12.7894 32.0621 13.0506C34.7125 14.2179 36.6621 15.7852 37.4527 17.7198Z" fill="black"/>
</svg>
