<svg width="55" height="50" viewBox="0 0 55 50" fill="none" xmlns="http://www.w3.org/2000/svg">
<path fill-rule="evenodd" clip-rule="evenodd" d="M36.5 18.3988C36.5 20.5675 35.5518 22.6474 33.864 24.1809C32.1761 25.7145 29.8869 26.576 27.5 26.576C25.1131 26.576 22.8239 25.7145 21.136 24.1809C19.4482 22.6474 18.5 20.5675 18.5 18.3988C18.5 16.23 19.4482 14.1501 21.136 12.6166C22.8239 11.0831 25.1131 10.2216 27.5 10.2216C29.8869 10.2216 32.1761 11.0831 33.864 12.6166C35.5518 14.1501 36.5 16.23 36.5 18.3988ZM32 18.3988C32 19.4831 31.5259 20.5231 30.682 21.2899C29.8381 22.0566 28.6935 22.4874 27.5 22.4874C26.3065 22.4874 25.1619 22.0566 24.318 21.2899C23.4741 20.5231 23 19.4831 23 18.3988C23 17.3144 23.4741 16.2745 24.318 15.5077C25.1619 14.7409 26.3065 14.3102 27.5 14.3102C28.6935 14.3102 29.8381 14.7409 30.682 15.5077C31.5259 16.2745 32 17.3144 32 18.3988Z" fill="black"/>
<path fill-rule="evenodd" clip-rule="evenodd" d="M27.5 2.04431C13.8313 2.04431 2.75 12.1125 2.75 24.5317C2.75 36.9508 13.8313 47.019 27.5 47.019C41.1688 47.019 52.25 36.9508 52.25 24.5317C52.25 12.1125 41.1688 2.04431 27.5 2.04431ZM7.25 24.5317C7.25 28.8042 8.85425 32.7375 11.543 35.8612C13.4313 33.6082 15.8673 31.7823 18.6607 30.5262C21.4542 29.2701 24.5294 28.6178 27.6462 28.6203C30.7227 28.6176 33.7593 29.253 36.5246 30.4781C39.2899 31.7031 41.7109 33.4855 43.6032 35.6895C45.5528 33.3663 46.8654 30.6548 47.4325 27.7792C47.9996 24.9036 47.805 21.9467 46.8646 19.1531C45.9243 16.3594 44.2652 13.8094 42.0248 11.7139C39.7844 9.61851 37.0271 8.03792 33.9809 7.10296C30.9347 6.16799 27.6872 5.90553 24.5072 6.33729C21.3272 6.76905 18.306 7.88262 15.6937 9.58586C13.0814 11.2891 10.9531 13.533 9.48477 16.132C8.01646 18.731 7.25041 21.6103 7.25 24.5317ZM27.5 42.9304C22.8514 42.9367 18.3431 41.4837 14.738 38.8172C16.1891 36.9298 18.1205 35.3888 20.3679 34.3253C22.6154 33.2618 25.1123 32.7072 27.6462 32.7089C30.1486 32.707 32.6153 33.2477 34.8416 34.2859C37.0678 35.3241 38.9893 36.8299 40.4465 38.6782C36.8134 41.4313 32.2308 42.9364 27.5 42.9304Z" fill="black"/>
</svg>
