<svg width="43" height="43" viewBox="0 0 43 43" fill="none" xmlns="http://www.w3.org/2000/svg">
<path d="M10.7501 3.58333H26.8751C27.8254 3.58333 28.7369 3.96086 29.4089 4.63286C30.0809 5.30487 30.4584 6.2163 30.4584 7.16666V10.75H26.8751V7.16666H10.7501V35.8333H26.8751V32.25H30.4584V35.8333C30.4584 36.7837 30.0809 37.6951 29.4089 38.3671C28.7369 39.0391 27.8254 39.4167 26.8751 39.4167H10.7501C9.79972 39.4167 8.88829 39.0391 8.21628 38.3671C7.54428 37.6951 7.16675 36.7837 7.16675 35.8333V7.16666C7.16675 6.2163 7.54428 5.30487 8.21628 4.63286C8.88829 3.96086 9.79972 3.58333 10.7501 3.58333Z" fill="black"/>
<path d="M28.8279 27.9321L31.3542 30.4583L40.3125 21.5L31.3542 12.5417L28.8279 15.0679L33.4504 19.7083H16.125V23.2917H33.4504L28.8279 27.9321Z" fill="black"/>
</svg>
