<svg width="55" height="50" viewBox="0 0 55 50" fill="none" xmlns="http://www.w3.org/2000/svg">
<path d="M21.0695 44.9852C17.3481 43.9757 13.9777 42.1079 11.2865 39.5638C12.1524 38.6307 12.6922 37.484 12.8367 36.2706C12.9813 35.0572 12.7242 33.8322 12.0981 32.7524C11.4721 31.6725 10.5057 30.7869 9.32258 30.2089C8.13946 29.6309 6.79344 29.3868 5.45675 29.5078C5.15223 28.1526 4.99921 26.7728 5 25.3896C5 23.2533 5.36 21.1926 6.0305 19.2567H6.125C7.27223 19.257 8.40062 18.9917 9.40363 18.4857C10.4066 17.9797 11.2512 17.2499 11.8575 16.365C12.4638 15.4801 12.8119 14.4694 12.8688 13.4284C12.9258 12.3873 12.6898 11.3502 12.1831 10.415C14.8208 8.18351 18.0107 6.56135 21.4835 5.68555C22.0487 6.6938 22.9098 7.54034 23.9717 8.13151C25.0335 8.72267 26.2547 9.03542 27.5 9.03514C28.7453 9.03542 29.9665 8.72267 31.0283 8.13151C32.0902 7.54034 32.9513 6.6938 33.5165 5.68555C36.9893 6.56135 40.1792 8.18351 42.8169 10.415C42.3065 11.3568 42.0707 12.4017 42.132 13.45C42.1934 14.4982 42.5498 15.5146 43.1672 16.4018C43.7846 17.2891 44.6423 18.0175 45.6582 18.5173C46.6742 19.0172 47.8143 19.2717 48.9695 19.2567C49.6546 21.2414 50.0021 23.3095 50 25.3896C50 26.8001 49.8425 28.178 49.5433 29.5088C48.2066 29.3878 46.8605 29.632 45.6774 30.21C44.4943 30.7879 43.5279 31.6735 42.9019 32.7534C42.2759 33.8332 42.0187 35.0582 42.1633 36.2717C42.3079 37.4851 42.8476 38.6317 43.7135 39.5648C41.0222 42.1086 37.6518 43.976 33.9305 44.9852C33.4935 43.7477 32.6353 42.6682 31.4796 41.9024C30.3239 41.1365 28.9304 40.7238 27.5 40.7238C26.0696 40.7238 24.6761 41.1365 23.5204 41.9024C22.3647 42.6682 21.5065 43.7477 21.0695 44.9852Z" stroke="black" stroke-width="4.5" stroke-linejoin="round"/>
<path d="M27.5 32.5446C28.5342 32.5446 29.5582 32.3596 30.5136 32C31.4691 31.6404 32.3372 31.1134 33.0685 30.449C33.7997 29.7845 34.3798 28.9958 34.7756 28.1277C35.1713 27.2596 35.375 26.3292 35.375 25.3896C35.375 24.4499 35.1713 23.5195 34.7756 22.6514C34.3798 21.7833 33.7997 20.9946 33.0685 20.3302C32.3372 19.6658 31.4691 19.1387 30.5136 18.7791C29.5582 18.4196 28.5342 18.2345 27.5 18.2345C25.4114 18.2345 23.4084 18.9883 21.9315 20.3302C20.4547 21.672 19.625 23.4919 19.625 25.3896C19.625 27.2872 20.4547 29.1071 21.9315 30.449C23.4084 31.7908 25.4114 32.5446 27.5 32.5446Z" stroke="black" stroke-width="4.5" stroke-linejoin="round"/>
</svg>
